<svg width="53" height="55" viewBox="0 0 53 55" fill="none" xmlns="http://www.w3.org/2000/svg">
<path fill-rule="evenodd" clip-rule="evenodd" d="M37.4048 28.1161C37.0958 21.732 32.0783 16.7854 26.0972 16.7854C20.116 16.7854 15.0985 21.732 14.7896 28.1161H13C13.3116 20.8158 19.0562 14.9976 26.0972 14.9976C33.1381 14.9976 38.8828 20.8158 39.1943 28.1161H37.4048Z" fill="#519157"/>
<path d="M26.1104 10V15.3099" stroke="#519157" stroke-width="2.38372" stroke-linecap="round"/>
<path d="M26.1104 39.3608V44.3584" stroke="#519157" stroke-width="2.38372" stroke-linecap="round"/>
<path d="M32.0693 36.8618L35.4404 40.3956" stroke="#519157" stroke-width="2.38372" stroke-linecap="round"/>
<path d="M16.5752 40.3955L19.9463 36.8617" stroke="#519157" stroke-width="2.38372" stroke-linecap="round"/>
<path fill-rule="evenodd" clip-rule="evenodd" d="M19.6181 28.1162C19.5763 28.4223 19.5547 28.7351 19.5547 29.0533C19.5547 32.6758 22.3562 35.6125 25.812 35.6125C29.2678 35.6125 32.0692 32.6758 32.0692 29.0533C32.0692 28.7351 32.0476 28.4223 32.0059 28.1162H30.1965C30.2521 28.4177 30.2814 28.7308 30.2814 29.0533C30.2814 31.7688 28.2019 33.8248 25.812 33.8248C23.422 33.8248 21.3425 31.7688 21.3425 29.0533C21.3425 28.7308 21.3718 28.4177 21.4275 28.1162H19.6181Z" fill="#519157"/>
<path d="M13.8436 28.4287H38.3662" stroke="#519157" stroke-width="1.78779" stroke-linecap="round"/>
</svg>
