<svg width="24" height="25" viewBox="0 0 24 25" fill="none" xmlns="http://www.w3.org/2000/svg">
<path d="M14.4301 19.3885C14.2401 19.3885 14.0501 19.3197 13.9001 19.1722C13.6101 18.8872 13.6101 18.4153 13.9001 18.1303L19.4401 12.6847L13.9001 7.23913C13.6101 6.95407 13.6101 6.48225 13.9001 6.19719C14.1901 5.91213 14.6701 5.91213 14.9601 6.19719L21.0301 12.1637C21.3201 12.4488 21.3201 12.9206 21.0301 13.2057L14.9601 19.1722C14.8101 19.3197 14.6201 19.3885 14.4301 19.3885Z" fill="#2C2C2C"/>
<path d="M20.33 13.4219H3.5C3.09 13.4219 2.75 13.0877 2.75 12.6847C2.75 12.2817 3.09 11.9475 3.5 11.9475H20.33C20.74 11.9475 21.08 12.2817 21.08 12.6847C21.08 13.0877 20.74 13.4219 20.33 13.4219Z" fill="#2C2C2C"/>
</svg>
