<svg width="53" height="55" viewBox="0 0 53 55" fill="none" xmlns="http://www.w3.org/2000/svg">
<ellipse cx="26.2338" cy="27.5" rx="26.2338" ry="27.5" fill="white"/>
<path d="M29.9051 37.9016C29.9051 40.0783 28.2219 41.8428 26.1454 41.8428C24.069 41.8428 22.3857 40.0783 22.3857 37.9016C22.3857 35.725 24.069 33.9604 26.1454 33.9604C28.2219 33.9604 29.9051 35.725 29.9051 37.9016Z" fill="#519157"/>
<path fill-rule="evenodd" clip-rule="evenodd" d="M29.2788 31.3332V14.0129C29.2788 12.2826 27.8761 10.8798 26.1457 10.8798C24.4154 10.8798 23.0127 12.2826 23.0127 14.0129V31.3332H21.1328V14.0129C21.1328 11.2444 23.3772 9 26.1457 9C28.9143 9 31.1587 11.2444 31.1587 14.0129V31.3332H29.2788ZM31.1587 38.5586H21.1328V38.5587H23.0127H29.2788H31.1587V38.5586Z" fill="#519157"/>
<path fill-rule="evenodd" clip-rule="evenodd" d="M23.0128 29.3795C20.0691 30.7041 18 33.8389 18 37.4951C18 42.3493 21.6471 46.2843 26.146 46.2843C30.6449 46.2843 34.292 42.3493 34.292 37.4951C34.292 33.8388 32.2228 30.7039 29.2789 29.3794V31.5169C31.1202 32.6902 32.4121 34.8734 32.4121 37.4951C32.4121 41.4481 29.4747 44.4045 26.146 44.4045C22.8173 44.4045 19.8798 41.4481 19.8798 37.4951C19.8798 34.8736 21.1717 32.6904 23.0128 31.5171V29.3795Z" fill="#519157"/>
</svg>
