<svg width="24" height="24" viewBox="0 0 24 24" fill="none" xmlns="http://www.w3.org/2000/svg">
<path d="M12 3.00031C7.03832 3.00031 3 7.03863 3 12.0003C3 16.962 7.03832 21.0003 12 21.0003C16.9617 21.0003 21 16.962 21 12.0003C21 7.03863 16.9617 3.00031 12 3.00031ZM12 4.50031C16.151 4.50031 19.5 7.84929 19.5 12.0003C19.5 15.7708 16.7338 18.8713 13.1162 19.4095V14.1873H15.252L15.5874 12.0179H13.1162V10.8328C13.1162 9.93207 13.4121 9.13214 14.2544 9.13214H15.6079V7.23956C15.3702 7.20731 14.867 7.13702 13.916 7.13702C11.93 7.13702 10.7666 8.18551 10.7666 10.575V12.0179H8.72461V14.1873H10.7666V19.3904C7.20664 18.8033 4.5 15.7301 4.5 12.0003C4.5 7.84929 7.84898 4.50031 12 4.50031Z" fill="#2C2C2C"/>
</svg>
