<svg width="24" height="24" viewBox="0 0 24 24" fill="none" xmlns="http://www.w3.org/2000/svg">
<path d="M8.60156 3.74976C5.93848 3.74976 3.75 5.9353 3.75 8.60132V15.3982C3.75 18.0613 5.93555 20.2498 8.60156 20.2498H15.3984C18.0615 20.2498 20.25 18.0642 20.25 15.3982V8.60132C20.25 5.93823 18.0645 3.74976 15.3984 3.74976H8.60156ZM8.60156 5.24976H15.3984C17.2529 5.24976 18.75 6.74683 18.75 8.60132V15.3982C18.75 17.2527 17.2529 18.7498 15.3984 18.7498H8.60156C6.74707 18.7498 5.25 17.2527 5.25 15.3982V8.60132C5.25 6.74683 6.74707 5.24976 8.60156 5.24976ZM16.4297 6.89038C16.0518 6.89038 15.75 7.19214 15.75 7.57007C15.75 7.948 16.0518 8.24976 16.4297 8.24976C16.8076 8.24976 17.1094 7.948 17.1094 7.57007C17.1094 7.19214 16.8076 6.89038 16.4297 6.89038ZM12 7.49976C9.52441 7.49976 7.5 9.52417 7.5 11.9998C7.5 14.4753 9.52441 16.4998 12 16.4998C14.4756 16.4998 16.5 14.4753 16.5 11.9998C16.5 9.52417 14.4756 7.49976 12 7.49976ZM12 8.99976C13.667 8.99976 15 10.3328 15 11.9998C15 13.6667 13.667 14.9998 12 14.9998C10.333 14.9998 9 13.6667 9 11.9998C9 10.3328 10.333 8.99976 12 8.99976Z" fill="#2C2C2C"/>
</svg>
